<svg 
    xmlns="http://www.w3.org/2000/svg" 
    viewBox="0 0 380 100" 
    preserveAspectRatio="xMidYMid meet">

    <style>
        @import url('https://fonts.googleapis.com/css2?family=Inter:wght@800display=swap');
        .logo-text {
            font-family: 'Inter', sans-serif;
            font-weight: 800;
            font-size: 28px;
        }
    </style>

    <!-- Fundo círculo azul -->
    <circle cx="50" cy="50" r="40" fill="#3B82F6" />

    <!-- 
      Cupom branco. 
      A posição Y e a altura foram ajustadas para que os "dentes" 
      fiquem visíveis contra o fundo azul, criando um efeito de perfuração.
    -->
    <rect x="28" y="21.5" width="44" height="57" rx="2" ry="2" fill="#FFFFFF"/>
    
    <!-- Dentes do cupom (topo) -->
    <path d="M28,20 L30,23 L32,20 L34,23 L36,20 L38,23 L40,20 L42,23 
             L44,20 L46,23 L48,20 L50,23 L52,20 L54,23 L56,20 L58,23 
             L60,20 L62,23 L64,20 L66,23 L68,20 L70,23 L72,20"
          fill="none" stroke="#3B82F6" stroke-width="1.5"/>
    
    <!-- Dentes do cupom (base) -->
    <path d="M28,80 L30,77 L32,80 L34,77 L36,80 L38,77 L40,80 L42,77 
             L44,80 L46,77 L48,80 L50,77 L52,80 L54,77 L56,80 L58,77 
             L60,80 L62,77 L64,80 L66,77 L68,80 L70,77 L72,80"
          fill="none" stroke="#3B82F6" stroke-width="1.5"/>

    <!-- 
      Ícone QR Code centralizado no cupom.
      A transformação foi recalculada para centralizar perfeitamente o ícone 
      após a escala, com base no centro do cupom (50, 50).
    -->
    <g id="qr-icon" transform="translate(32.2, 32.2) scale(1.6)">
        <path d="M21,2H15a1,1,0,0,0-1,1V9a1,1,0,0,0,1,1h1v2h2V10h2v2h2V3A1,1,0,0,0,21,2ZM18,8H16V4h4V8ZM3,10H9a1,1,0,0,0,1-1V3A1,1,0,0,0,9,2H3A1,1,0,0,0,2,3V9A1,1,0,0,0,3,10ZM4,4H8V8H4ZM5,16v2H3V16ZM3,20H5v2H3Zm4-2v2H5V18Zm0-2H5V14H7V12H9v4ZM5,12v2H3V12Zm9,3v1H13V14H11v4h3v3a1,1,0,0,0,1,1h6a1,1,0,0,0,1-1V15a1,1,0,0,0-1-1H16V12H14Zm6,1v4H16V16ZM9,18h2v2h1v2H7V20H9ZM13,6H11V4h2ZM11,8h2v4H11ZM5,5H7V7H5ZM17,5h2V7H17Zm2,14H17V17h2Z" 
              fill="#3B82F6"/>
    </g>

    <!-- Texto ao lado -->
    <text x="96" y="60" class="logo-text">
        <tspan fill="#1E293B" dx="-2">ByeBye</tspan>
        <tspan fill="#3B82F6" dx="-6">Cupom!</tspan>
    </text>
</svg>

