<svg viewBox="0 0 240 50" xmlns="http://www.w3.org/2000/svg">
    <style>
        @import url('https://fonts.googleapis.com/css2?family=Inter:wght@800display=swap');
        .logo-text {
            font-family: 'Inter', sans-serif;
            font-weight: 800;
            font-size: 24px;
        }
    </style>

    <!-- Ãcone QR -->
    <g id="qr-icon" transform="translate(0, 4) scale(2.0)">
        <path d="M21,2H15a1,1,0,0,0-1,1V9a1,1,0,0,0,1,1h1v2h2V10h2v2h2V3A1,1,0,0,0,21,2ZM18,8H16V4h4V8ZM3,10H9a1,1,0,0,0,1-1V3A1,1,0,0,0,9,2H3A1,1,0,0,0,2,3V9A1,1,0,0,0,3,10ZM4,4H8V8H4ZM5,16v2H3V16ZM3,20H5v2H3Zm4-2v2H5V18Zm0-2H5V14H7V12H9v4ZM5,12v2H3V12Zm9,3v1H13V14H11v4h3v3a1,1,0,0,0,1,1h6a1,1,0,0,0,1-1V15a1,1,0,0,0-1-1H16V12H14Zm6,1v4H16V16ZM9,18h2v2h1v2H7V20H9ZM13,6H11V4h2ZM11,8h2v4H11ZM5,5H7V7H5ZM17,5h2V7H17Zm2,14H17V17h2Z" fill="#3B82F6"/>
    </g>
    
    <!-- Texto -->
    <text x="52" y="37" class="logo-text">
        <tspan fill="#1E293B" dx="-6">ByeBye</tspan>
        <tspan fill="#2563EB" dx="-9">Cupom!</tspan>
    </text>
</svg>