<!DOCTYPE svg PUBLIC "-//W3C//DTD SVG 1.1//EN" "http://www.w3.org/Graphics/SVG/1.1/DTD/svg11.dtd">
<!-- Uploaded to: SVG Repo, www.svgrepo.com, Transformed by: SVG Repo Mixer Tools -->
<svg fill="#000000" width="800px" height="800px" viewBox="0 0 24 24" id="processor" data-name="Line Color" xmlns="http://www.w3.org/2000/svg" class="icon line-color">
<g id="SVGRepo_bgCarrier" stroke-width="0"/>
<g id="SVGRepo_tracerCarrier" stroke-linecap="round" stroke-linejoin="round"/>
<g id="SVGRepo_iconCarrier">
<path id="secondary" d="M12,6V3m4,3V4M8,6V4m10,8h3m-3,4h2M18,8h2M12,18v3M8,18v2m8-2v2M6,12H3M6,8H4m2,8H4" style="fill: none; stroke: #3b82f6; stroke-linecap: round; stroke-linejoin: round; stroke-width: 2;"/>
<path id="primary" d="M17,18H7a1,1,0,0,1-1-1V7A1,1,0,0,1,7,6H17a1,1,0,0,1,1,1V17A1,1,0,0,1,17,18Zm-3-8H10v4h4Z" style="fill: none; stroke: #3b82f6; stroke-linecap: round; stroke-linejoin: round; stroke-width: 2;"/>
</g>
</svg>